<?xml version="1.0" standalone="no"?>
<!DOCTYPE svg PUBLIC "-//W3C//DTD SVG 20010904//EN"
 "http://www.w3.org/TR/2001/REC-SVG-20010904/DTD/svg10.dtd">
<svg version="1.0" xmlns="http://www.w3.org/2000/svg"
 width="360.000000pt" height="360.000000pt" viewBox="0 0 360.000000 360.000000"
 preserveAspectRatio="xMidYMid meet">

<g transform="translate(0.000000,360.000000) scale(0.100000,-0.100000)"
fill="#000000" stroke="none">
<path d="M1535 3448 c-40 -40 -57 -67 -69 -107 -39 -133 -7 -276 94 -411 50
-67 52 -110 7 -144 -43 -32 -113 -25 -234 23 -73 30 -116 41 -155 41 -39 1
-49 3 -36 10 29 18 103 23 156 11 46 -9 56 -8 84 9 54 33 138 20 138 -20 0
-15 -36 -30 -72 -30 -25 0 -29 -3 -18 -10 21 -14 104 -12 118 2 7 7 12 26 12
43 0 24 -12 42 -56 85 -63 63 -91 104 -110 163 l-13 42 0 -37 c-1 -21 8 -61
19 -90 11 -29 20 -54 20 -55 0 -2 -11 -3 -24 -3 -40 0 -209 -46 -287 -79 -84
-35 -233 -129 -294 -185 l-40 -37 43 30 c24 16 67 38 95 47 64 22 178 23 228
2 33 -15 41 -14 94 4 76 25 128 17 172 -27 38 -38 44 -82 15 -108 -24 -22 -71
-22 -102 0 -24 17 -25 17 -10 -2 39 -50 109 -95 171 -109 25 -5 27 -3 33 42 4
26 13 61 21 77 l13 30 -6 -40 c-7 -40 -7 -57 -2 -176 4 -114 -31 -154 -131
-147 l-58 4 19 -25 c76 -106 239 -191 364 -191 l51 0 -65 35 c-35 20 -71 43
-80 51 -14 15 -13 16 9 11 13 -3 35 -1 49 4 l26 10 -31 19 c-40 24 -50 40 -24
40 32 0 33 17 4 46 l-27 28 27 9 27 9 -20 25 c-39 49 -18 147 37 172 30 14 52
5 59 -25 5 -20 8 -21 26 -11 16 10 22 8 39 -12 12 -15 18 -33 15 -45 -4 -18
-1 -21 27 -21 30 0 32 -2 32 -36 0 -36 1 -37 33 -32 62 10 90 -43 57 -107 -20
-38 -13 -38 38 3 39 30 45 32 127 32 91 0 162 24 168 56 2 10 -31 39 -91 82
-132 93 -174 142 -250 293 -54 106 -81 146 -152 222 -106 117 -155 209 -163
308 -5 65 -5 66 -19 40 -23 -43 -33 -130 -23 -193 8 -50 15 -63 52 -97 l43
-39 -45 24 c-60 33 -111 85 -140 144 -21 43 -25 64 -25 150 0 86 3 106 24 145
13 25 30 53 39 63 35 39 -5 13 -53 -35z m110 -684 c-19 -29 -54 -44 -98 -43
-28 1 -27 2 13 11 49 10 89 46 91 81 2 21 2 21 6 -1 3 -13 -3 -34 -12 -48z
m212 3 c46 -50 88 -119 99 -161 7 -29 7 -29 -29 10 -19 21 -53 50 -75 64 -35
22 -39 28 -35 56 3 17 0 41 -6 53 -19 35 4 24 46 -22z m-42 -191 c46 -22 216
-165 275 -231 l25 -29 -30 22 c-16 11 -79 64 -140 118 -116 102 -153 124 -208
124 -81 0 -117 -69 -127 -250 l-8 -125 2 140 c1 124 4 145 24 182 39 74 100
90 187 49z m445 -242 c0 -8 -4 -14 -9 -14 -5 0 -18 -3 -28 -7 -17 -6 -17 -5
-2 13 16 18 14 21 -37 59 -76 57 -67 64 11 9 36 -25 65 -52 65 -60z m-295 56
c3 -5 -1 -10 -9 -10 -9 0 -16 5 -16 10 0 6 4 10 9 10 6 0 13 -4 16 -10z m105
-88 c0 -5 -9 -17 -21 -28 -21 -19 -21 -19 -8 9 12 26 29 37 29 19z m-395 -192
c43 -22 36 -26 -14 -9 -17 6 -31 15 -31 20 0 12 0 12 45 -11z"/>
<path d="M2100 3321 c-88 -47 -195 -176 -235 -283 l-17 -47 43 -53 44 -52 7
85 c3 46 16 110 28 141 25 67 92 163 141 201 40 31 37 33 -11 8z"/>
<path d="M1336 3279 c-34 -50 -56 -111 -56 -152 0 -30 0 -30 -21 -11 -18 16
-37 19 -123 19 -55 0 -109 -5 -119 -11 -13 -8 -1 -10 50 -10 88 0 133 -21 133
-64 0 -35 -31 -60 -76 -60 -38 0 -58 21 -49 50 l7 21 -40 -20 c-55 -28 -145
-113 -197 -185 -51 -72 -107 -166 -99 -166 3 0 29 21 58 46 45 41 165 131 205
153 11 7 10 13 -4 35 -10 14 -13 26 -7 26 6 0 14 -4 17 -10 11 -18 59 -11 130
19 39 16 101 35 138 42 l68 13 -8 45 c-14 80 -9 183 11 219 25 49 14 49 -18 1z"/>
<path d="M1830 3273 c-76 -5 -130 -14 -130 -21 0 -4 4 -13 9 -21 7 -11 20 -11
77 2 38 9 100 19 137 22 37 4 67 9 65 10 -7 5 -116 11 -158 8z"/>
<path d="M1578 3228 c-28 -10 -35 -31 -19 -56 15 -24 61 6 61 40 0 31 -2 31
-42 16z"/>
<path d="M2046 3201 c-18 -19 -15 -41 5 -41 26 0 167 -65 230 -105 187 -121
302 -292 376 -561 24 -88 27 -116 27 -249 0 -136 -3 -158 -27 -230 -60 -181
-187 -305 -372 -366 -67 -22 -85 -23 -390 -24 -358 -1 -409 -9 -538 -77 -296
-158 -359 -579 -118 -800 l56 -52 -43 24 c-55 31 -143 123 -173 180 -12 25
-30 72 -40 105 -24 83 -23 36 1 -61 21 -81 79 -215 107 -247 9 -9 14 -20 11
-23 -11 -10 -73 81 -121 176 -27 52 -46 84 -42 70 19 -68 94 -187 160 -255 39
-39 54 -53 35 -31 l-35 41 42 -39 c23 -22 40 -43 38 -47 -3 -4 27 -29 67 -55
88 -57 102 -68 66 -55 -48 18 -209 113 -244 143 -51 45 -129 147 -179 235 -25
43 -45 74 -45 70 0 -16 72 -138 113 -190 67 -87 63 -86 -35 13 -52 52 -111
120 -131 150 -40 60 -46 52 -21 -31 23 -76 85 -195 133 -256 53 -66 157 -145
239 -180 34 -15 62 -31 62 -35 0 -20 -101 -22 -165 -4 -11 4 0 -4 25 -16 42
-22 55 -23 218 -20 94 1 172 0 172 -4 0 -13 -85 -105 -122 -130 -22 -16 -35
-30 -29 -32 19 -6 147 37 162 54 11 13 5 12 -28 -5 -66 -33 -72 -25 -16 24
106 93 173 232 173 364 l1 66 44 -50 c25 -27 45 -55 45 -63 0 -17 -56 -127
-91 -179 l-29 -41 50 -13 c28 -7 50 -16 50 -21 0 -4 -21 -8 -47 -9 l-48 -1 35
-9 c19 -5 73 -9 120 -8 47 0 91 0 99 0 10 -1 12 -10 7 -33 -5 -32 -5 -32 10
-13 12 15 15 35 11 84 -7 94 -65 202 -170 317 -67 75 -94 115 -146 217 -71
143 -114 193 -236 278 -99 69 -112 83 -95 104 21 26 117 48 182 42 54 -5 60
-3 100 29 51 40 66 43 44 9 -39 -59 -6 -123 58 -111 30 6 35 4 30 -9 -3 -8 -3
-27 0 -41 6 -22 11 -25 37 -22 27 4 30 2 25 -18 -4 -14 1 -31 13 -45 17 -20
23 -22 39 -12 18 10 21 9 26 -11 7 -30 29 -39 59 -25 56 25 79 130 38 173 -23
24 -19 36 11 36 24 0 23 9 -8 41 l-26 27 28 15 28 15 -32 16 c-18 9 -32 20
-32 25 0 12 45 22 67 15 40 -15 -25 38 -83 66 l-59 29 56 1 c101 0 222 -53
311 -138 63 -60 73 -79 31 -56 -33 16 -77 18 -104 4 -22 -12 -49 -61 -60 -109
-9 -42 10 -213 24 -204 5 3 6 23 3 46 l-7 40 42 -7 c51 -8 103 -35 149 -76 38
-34 37 -34 -33 -1 -57 26 -92 22 -109 -14 -14 -32 -4 -68 33 -110 53 -60 172
-80 269 -43 24 9 24 9 5 -12 -18 -20 -18 -22 -1 -38 26 -26 111 -20 181 12 32
14 59 25 61 23 2 -1 -19 -18 -47 -36 -116 -76 -200 -79 -344 -14 -113 51 -167
61 -220 38 -46 -19 -55 -30 -55 -71 0 -20 14 -48 41 -85 46 -61 65 -95 84
-150 l14 -39 -47 -24 c-26 -13 -58 -26 -72 -30 -25 -7 -25 -7 3 11 15 10 27
25 27 34 0 29 -60 99 -115 134 -70 45 -78 44 -26 -2 35 -33 43 -47 52 -98 10
-57 8 -109 -7 -164 -7 -23 -6 -24 33 -19 39 6 41 4 45 -23 7 -46 -10 -160 -28
-186 -8 -14 -14 -27 -11 -29 7 -8 83 53 101 82 18 28 17 28 -18 -5 -20 -19
-36 -30 -36 -25 0 6 4 14 10 20 16 16 41 132 38 179 -3 44 -1 47 30 60 31 14
32 13 32 -11 0 -19 4 -24 18 -20 9 3 30 8 45 12 l28 6 -15 -37 c-10 -23 -12
-35 -4 -33 15 5 47 104 47 149 1 25 9 43 27 60 l26 24 -5 -50 c-2 -27 -8 -60
-12 -72 -6 -19 -3 -23 31 -29 55 -10 174 11 246 44 64 29 178 115 178 133 0 6
-15 -1 -33 -15 -122 -93 -295 -111 -373 -39 l-27 24 36 37 c19 20 47 55 62 77
16 23 24 31 20 18 -3 -13 -3 -23 1 -23 25 0 207 103 284 161 51 38 94 68 95
67 2 -2 -18 -34 -43 -72 -62 -92 -155 -184 -220 -219 l-53 -29 7 26 c13 52
-79 61 -112 12 -31 -49 35 -96 114 -81 122 23 285 191 396 409 108 211 98 421
-23 514 -32 24 -44 27 -117 27 -73 0 -84 -3 -117 -28 -99 -75 -86 -207 21
-207 42 0 62 14 62 42 0 16 -7 18 -36 16 -46 -4 -55 15 -19 38 21 14 31 15 51
6 77 -36 12 -135 -78 -118 -84 16 -112 116 -53 190 17 20 47 58 68 84 84 104
175 335 204 517 18 114 22 130 28 123 3 -3 1 -59 -5 -124 -11 -125 -50 -316
-80 -396 -19 -50 -17 -58 12 -58 22 0 51 60 78 165 l19 70 0 -60 c0 -37 -8
-86 -23 -128 l-23 -67 34 -21 c30 -19 33 -24 27 -54 -4 -26 0 -44 21 -79 15
-27 32 -77 39 -118 l12 -72 32 109 c65 224 70 287 26 336 -21 23 -70 25 -78 3
-10 -25 -7 -33 15 -55 27 -27 19 -35 -11 -11 -42 34 -23 102 29 102 53 -1 91
-52 91 -124 0 -89 -96 -449 -154 -580 -14 -32 -23 -62 -20 -67 8 -14 91 -11
127 5 74 30 109 114 67 156 -25 25 -42 25 -65 0 -21 -23 -13 -50 15 -50 25 0
26 9 3 26 -17 12 -17 13 0 19 29 12 49 -2 45 -32 -6 -52 -97 -58 -120 -8 -10
21 -4 39 39 132 28 60 66 155 84 213 22 71 45 121 70 155 45 60 79 131 78 165
0 24 0 24 -11 5 -15 -27 -40 -45 -56 -42 -10 1 -14 50 -16 222 -3 178 -8 236
-24 305 -24 101 -80 260 -92 260 -5 0 -20 -51 -35 -112 -20 -83 -26 -128 -22
-170 10 -118 71 -179 102 -104 8 19 16 48 16 63 l1 28 8 -30 c12 -48 11 -128
-3 -154 -53 -104 -146 -5 -155 166 -5 92 6 162 45 298 34 117 37 230 6 295
l-21 45 -1 -36 c-2 -75 -46 -78 -101 -6 -75 97 -134 167 -137 164 -1 -2 8 -26
21 -53 44 -90 76 -213 88 -333 14 -139 2 -196 -17 -86 -51 285 -120 442 -258
591 -116 124 -254 202 -407 230 -106 19 -144 18 -164 -5z m279 -96 c227 -111
397 -365 452 -680 20 -118 13 -351 -16 -483 -44 -201 -129 -397 -237 -548 -74
-104 -78 -112 -65 -140 9 -21 8 -24 -8 -24 -10 0 -56 -11 -101 -24 -92 -26
-92 -25 5 41 51 35 88 72 135 135 61 81 159 248 145 248 -3 0 -23 -9 -45 -20
-42 -21 -149 -50 -189 -50 -15 0 4 14 56 39 119 60 217 168 264 291 29 77 49
207 49 326 0 411 -208 779 -515 910 -33 14 -46 23 -30 19 17 -3 62 -21 100
-40z m525 -1730 c75 -39 99 -188 47 -296 -53 -111 -161 -199 -244 -199 -44 0
-75 31 -67 68 l6 27 -19 -22 c-50 -60 -131 -49 -220 31 -81 73 -117 96 -187
122 -34 13 -54 23 -44 23 43 2 143 -42 238 -102 57 -37 109 -67 116 -67 26 0
44 13 44 31 0 26 -59 67 -153 106 l-82 34 52 -6 c53 -6 112 -24 223 -71 119
-50 217 -32 265 48 l16 28 -33 -19 c-68 -40 -118 -36 -268 23 -51 20 -59 25
-36 25 15 1 56 -6 90 -15 106 -28 196 -4 237 62 62 101 -44 204 -153 148 -18
-9 -27 -11 -23 -4 23 37 142 52 195 25z m-690 -615 c11 -7 4 -10 -26 -10 -54
0 -75 -22 -49 -50 21 -23 62 -26 109 -6 l33 14 -6 -32 c-5 -24 -12 -32 -34
-34 -15 -2 -27 -5 -27 -6 0 -2 12 -24 26 -49 29 -53 35 -138 11 -182 -13 -26
-14 -26 -15 24 -1 62 -34 128 -104 207 -49 56 -61 97 -36 122 14 14 97 16 118
2z m190 -124 c-34 -47 -84 -89 -94 -79 -3 4 -6 18 -6 31 0 14 3 23 6 19 11
-10 61 14 89 43 40 42 41 37 5 -14z m-1188 -99 c82 -53 137 -79 218 -104 l75
-24 -58 6 c-117 11 -270 91 -340 177 -54 68 -54 77 0 26 28 -26 75 -62 105
-81z"/>
<path d="M1801 3195 c-35 -8 -65 -16 -67 -18 -2 -2 30 -13 71 -24 l76 -20 14
20 c12 16 12 23 2 29 -8 5 -7 8 5 8 9 0 20 5 23 10 9 14 -46 11 -124 -5z"/>
<path d="M1416 3152 c-8 -14 11 -62 24 -62 6 0 8 11 4 28 -8 33 -20 47 -28 34z"/>
<path d="M2002 3125 c-7 -14 -12 -28 -12 -30 0 -2 31 -20 69 -40 69 -37 141
-87 226 -159 44 -37 46 -38 60 -20 13 18 14 16 15 -18 0 -26 12 -56 36 -94
112 -175 148 -370 99 -531 -21 -71 -91 -170 -150 -215 -65 -49 -137 -75 -384
-137 -319 -81 -464 -136 -606 -228 -127 -83 -245 -217 -288 -331 -27 -69 -19
-72 15 -4 63 126 200 246 348 305 111 44 154 50 320 46 393 -9 480 -6 558 20
69 23 115 51 59 38 -40 -11 -86 3 -118 35 -54 54 -33 147 37 164 34 9 74 -11
74 -36 0 -24 -31 -27 -50 -5 -33 40 -78 -6 -65 -66 8 -36 59 -79 93 -79 129 0
240 134 289 345 27 120 24 332 -6 444 -72 271 -249 478 -494 579 -111 46 -112
46 -125 17z"/>
<path d="M2126 2912 c5 -4 35 -28 67 -51 98 -74 189 -213 221 -338 43 -163 -4
-348 -111 -443 -72 -63 -117 -82 -361 -150 -122 -34 -221 -65 -218 -67 7 -7
413 86 471 108 185 69 295 242 282 443 -12 192 -120 369 -285 469 -54 34 -90
49 -66 29z"/>
<path d="M514 2691 c-70 -42 -94 -111 -54 -151 25 -25 32 -25 61 -2 26 22 20
52 -11 52 -25 0 -26 -9 -2 -26 16 -12 16 -13 -1 -19 -21 -9 -47 11 -47 34 0
27 21 41 62 41 29 0 41 -6 54 -25 21 -31 15 -78 -21 -194 -15 -46 -25 -85 -23
-87 2 -2 18 43 36 99 18 56 38 116 44 132 6 17 13 46 15 66 4 30 1 40 -19 53
-23 17 -23 17 17 11 22 -3 47 -1 55 5 47 32 -113 43 -166 11z"/>
<path d="M895 2661 c-71 -33 -150 -113 -185 -186 -33 -67 -40 -175 -15 -221
20 -38 68 -64 117 -64 45 0 103 17 118 35 10 12 5 11 -28 -2 -106 -41 -197 50
-147 147 37 71 141 98 255 66 30 -9 69 -16 85 -15 24 0 18 4 -33 23 -69 26
-142 72 -142 90 0 16 21 36 36 36 7 0 39 -15 71 -34 68 -40 157 -72 228 -80
42 -5 46 -5 25 5 -184 83 -261 133 -245 158 18 31 97 4 205 -69 79 -53 134
-79 188 -90 63 -11 64 -6 1 14 -66 22 -112 51 -191 122 -83 75 -125 94 -213
94 -57 0 -81 -5 -130 -29z"/>
<path d="M674 2558 c-83 -113 -130 -229 -135 -334 -2 -34 2 -50 18 -66 26 -26
56 -18 51 14 -4 27 -38 38 -38 13 0 -9 5 -13 10 -10 6 3 10 1 10 -4 0 -16 -27
-13 -33 3 -7 19 17 39 40 34 22 -4 30 -53 12 -74 -16 -19 -53 -18 -70 3 -8 9
-17 41 -21 72 -3 31 -5 -14 -3 -99 3 -151 17 -250 36 -250 5 0 9 10 9 21 0 20
66 228 75 237 2 2 21 -6 42 -19 21 -12 39 -23 40 -23 1 -1 -9 -32 -23 -71 -15
-44 -23 -92 -23 -130 l0 -60 19 71 c28 106 60 170 85 166 11 -2 21 -5 22 -6 2
-1 -7 -26 -18 -55 -34 -90 -68 -241 -80 -357 -15 -148 -8 -174 14 -46 31 189
114 398 207 520 22 28 38 52 36 52 -2 0 -20 -7 -39 -15 -73 -30 -205 -10 -245
38 -22 26 5 30 39 5 26 -19 43 -23 108 -23 70 0 81 3 115 29 77 59 95 129 45
182 -26 28 -79 32 -103 8 -20 -20 -21 -73 -1 -80 25 -10 35 4 23 32 -9 20 -9
28 4 41 39 39 107 -25 93 -88 -10 -44 -50 -85 -100 -105 -57 -21 -145 -15
-183 13 -86 62 -94 239 -17 367 18 31 32 56 29 56 -2 0 -25 -28 -50 -62z"/>
<path d="M1305 2395 c-16 -7 -64 -21 -107 -31 -69 -16 -75 -19 -65 -35 15 -24
-14 -80 -93 -179 -53 -66 -151 -234 -150 -257 0 -4 22 33 49 84 86 165 200
295 339 385 34 22 62 42 62 44 0 5 2 5 -35 -11z"/>
<path d="M521 2284 c0 -11 3 -14 6 -6 3 7 2 16 -1 19 -3 4 -6 -2 -5 -13z"/>
<path d="M417 2119 c-56 -64 -93 -132 -102 -184 l-6 -40 16 27 c16 29 60 47
76 31 5 -5 10 -101 12 -213 3 -182 6 -219 31 -325 15 -66 41 -154 57 -195 25
-65 29 -89 29 -176 0 -70 5 -115 18 -150 l17 -49 3 37 c6 74 58 76 109 2 39
-57 156 -195 161 -190 2 2 -4 19 -14 37 -51 99 -105 311 -125 493 l-12 108
-17 -68 c-18 -72 -44 -104 -85 -104 -12 0 -30 9 -39 19 -15 17 -17 30 -10 88
l7 68 23 -49 c18 -39 20 -53 11 -67 -17 -27 3 -45 32 -29 39 21 43 52 16 150
-50 189 -53 368 -9 559 8 35 12 66 10 68 -8 9 -74 -212 -85 -287 -7 -41 -13
-76 -15 -77 -7 -7 -47 207 -57 307 -6 58 -8 140 -5 183 4 42 4 77 2 77 -2 0
-25 -23 -49 -51z"/>
<path d="M861 1819 c-12 -35 -21 -68 -20 -73 0 -6 11 20 25 58 13 38 22 71 20
73 -2 2 -13 -24 -25 -58z"/>
<path d="M1230 1843 c65 -7 81 -13 100 -46 25 -41 25 -68 1 -98 -20 -24 -20
-24 -51 -6 -40 22 -50 22 -50 -2 0 -11 12 -23 29 -31 24 -9 34 -9 59 4 34 18
42 33 42 83 0 26 -8 43 -34 69 -30 30 -40 34 -82 32 -39 -1 -42 -2 -14 -5z"/>
<path d="M1129 1811 c-49 -30 -102 -103 -137 -188 -26 -62 -52 -167 -51 -208
0 -16 7 5 15 48 31 172 110 308 209 360 17 9 25 16 19 17 -5 0 -30 -13 -55
-29z"/>
<path d="M831 1714 c0 -11 3 -14 6 -6 3 7 2 16 -1 19 -3 4 -6 -2 -5 -13z"/>
<path d="M822 1670 c0 -14 2 -19 5 -12 2 6 2 18 0 25 -3 6 -5 1 -5 -13z"/>
<path d="M812 1610 c0 -19 2 -27 5 -17 2 9 2 25 0 35 -3 9 -5 1 -5 -18z"/>
<path d="M803 1520 c0 -30 2 -43 4 -27 2 15 2 39 0 55 -2 15 -4 2 -4 -28z"/>
<path d="M1915 1472 c40 -19 57 -20 39 -2 -5 5 -25 12 -44 15 l-35 6 40 -19z"/>
<path d="M1981 1274 c-2 -182 -44 -274 -126 -274 -52 0 -97 27 -215 130 -58
51 -118 101 -135 113 l-30 20 30 -32 c58 -64 239 -214 279 -232 77 -35 147
-14 179 54 25 51 37 161 28 252 l-8 80 -2 -111z"/>
<path d="M934 1275 c0 -55 1 -76 3 -47 2 29 2 74 0 100 -2 26 -3 2 -3 -53z"/>
<path d="M803 1310 c0 -30 2 -43 4 -27 2 15 2 39 0 55 -2 15 -4 2 -4 -28z"/>
<path d="M1537 1302 c-19 -20 -22 -32 -9 -32 5 0 14 11 20 25 14 30 11 31 -11
7z"/>
<path d="M1343 1263 c-26 -10 -12 -32 44 -70 100 -67 99 -57 -1 20 -35 27 -36
30 -19 43 14 10 15 13 3 13 -8 0 -21 -3 -27 -6z"/>
<path d="M812 1225 c0 -16 2 -22 5 -12 2 9 2 23 0 30 -3 6 -5 -1 -5 -18z"/>
<path d="M1625 1190 c3 -5 10 -10 16 -10 5 0 9 5 9 10 0 6 -7 10 -16 10 -8 0
-12 -4 -9 -10z"/>
<path d="M822 1170 c0 -14 2 -19 5 -12 2 6 2 18 0 25 -3 6 -5 1 -5 -13z"/>
<path d="M941 1139 c1 -19 5 -47 10 -64 5 -20 6 -9 2 30 -6 66 -14 88 -12 34z"/>
<path d="M831 1124 c0 -11 3 -14 6 -6 3 7 2 16 -1 19 -3 4 -6 -2 -5 -13z"/>
<path d="M845 1077 c7 -36 46 -139 50 -135 2 2 -10 39 -26 83 -16 44 -27 67
-24 52z"/>
<path d="M961 1030 c0 -8 4 -24 9 -35 5 -13 9 -14 9 -5 0 8 -4 24 -9 35 -5 13
-9 14 -9 5z"/>
<path d="M1636 968 c10 -23 29 -61 42 -83 42 -70 134 -154 101 -94 -6 12 -9
37 -6 55 5 30 2 36 -25 50 -18 9 -53 39 -80 66 l-49 50 17 -44z"/>
<path d="M1959 831 c-16 -16 -29 -40 -29 -53 1 -21 2 -20 14 7 18 42 37 55 93
65 l48 8 -48 1 c-41 1 -53 -3 -78 -28z"/>
</g>
</svg>
