<svg xmlns:xlink="http://www.w3.org/1999/xlink" xmlns="http://www.w3.org/2000/svg" class="_2LoZB5t" width="17" height="18"><svg xmlns="http://www.w3.org/2000/svg" viewBox="0 0 17 18" fill="#FFBB3C"><path fill="#FFBB3C" fill-rule="evenodd" d="M8.925 1.109l2.38 4.848 4.578.466c.223.02.414.17.49.386.077.216.025.457-.134.62l-3.769 3.84 1.398 5.22c.058.225-.018.466-.195.613-.176.148-.42.175-.624.07l-4.642-2.364-4.636 2.361c-.204.105-.448.078-.625-.07-.176-.147-.252-.387-.194-.614l1.397-5.219-3.771-3.84c-.159-.162-.211-.404-.135-.62.076-.216.268-.366.49-.385l4.58-.467L7.888 1.11c.1-.2.3-.326.519-.326.218 0 .418.126.518.326z"></path></svg></svg>
