<svg xmlns:xlink="http://www.w3.org/1999/xlink" xmlns="http://www.w3.org/2000/svg" class="_2LoZB5t" width="23" height="20"><svg xmlns="http://www.w3.org/2000/svg" viewBox="0 0 23 20" fill="#FFFFFF"><path fill-rule="evenodd" d="M20.205 1.361A6.005 6.005 0 0016.38.004c-1.626 0-3.202.648-4.32 1.777a6.44 6.44 0 00-.567.66C10.123.618 7.834-.316 5.572.097c-1.877.34-3.355 1.372-4.384 3.065-1.455 2.389-1.575 4.693-.352 6.85.653 1.154 1.501 2.278 2.591 3.438 1.998 2.123 4.36 4.138 7.44 6.338.197.14.408.212.627.212.338 0 .567-.171.68-.255 2.778-1.984 4.961-3.813 6.868-5.758 1.066-1.086 2.274-2.419 3.158-4.086.378-.713.81-1.67.784-2.766-.056-2.354-.992-4.297-2.779-5.774zm.547 7.773c-.787 1.482-1.899 2.703-2.88 3.706-1.765 1.799-3.782 3.5-6.381 5.378-2.83-2.045-5.019-3.925-6.87-5.894-.998-1.062-1.771-2.082-2.359-3.122-.932-1.643-.828-3.293.327-5.188.777-1.277 1.88-2.053 3.28-2.307.267-.05.54-.073.807-.073 1.659 0 3.127.916 3.956 2.507l.14.265c.145.27.443.425.738.434a.816.816 0 00.72-.46c.292-.594.61-1.055.996-1.447.813-.821 1.962-1.29 3.155-1.29a4.36 4.36 0 012.78.981c1.426 1.177 2.14 2.666 2.185 4.55.016.71-.29 1.389-.594 1.96z" fill="#FFFFFF"></path></svg></svg>
